<svg xmlns="http://www.w3.org/2000/svg" width="160.155" height="160.155" viewBox="0 0 160.155 160.155">
    <defs>
        <style>
            .cls-1{fill:#262626;stroke:#fcfcfd;stroke-width:2px}
        </style>
    </defs>
    <path id="build" d="M148.952 136.2a7.527 7.527 0 0 0-3.278.768L111.1 102.39q1.033-1.431 1.928-2.959l25.687 6.882a7.621 7.621 0 1 0 1.145-4.974l-24.468-6.556a37.814 37.814 0 0 0 1.536-4.548l15.04-4.03a7.623 7.623 0 1 0-.855-5.053l-13.076 3.5a37.6 37.6 0 0 0 .3-4.576 38.071 38.071 0 0 0-1.423-10.2h11.627a7.662 7.662 0 0 0 7.653-7.653V51.888a25.509 25.509 0 1 0-5.1 0v10.333a2.553 2.553 0 0 1-2.551 2.551h-13.42a38.068 38.068 0 0 0-43.576-21.965l2.353-8.783a7.7 7.7 0 1 0-5.051-.855l-3.064 11.444a38.107 38.107 0 0 0-6.053 3.12l-6.018-22.45a7.677 7.677 0 1 0-4.977 1.14l6.576 24.54a38.444 38.444 0 0 0-2.936 2.793L18.088 19.468a7.536 7.536 0 0 0 .768-3.278 7.653 7.653 0 1 0-7.656 7.653 7.527 7.527 0 0 0 3.278-.768L49.1 57.7q-1.025 1.416-1.918 2.926l-25.749-6.9a7.617 7.617 0 1 0-1.138 4.974L44.8 65.265a37.87 37.87 0 0 0-1.543 4.53l-15.072 4.038a7.623 7.623 0 1 0 .855 5.053l13.094-3.507a38.584 38.584 0 0 0-.319 4.7 38.071 38.071 0 0 0 1.423 10.2H31.611a7.662 7.662 0 0 0-7.653 7.653v10.334a25.509 25.509 0 1 0 5.1 0V97.934a2.553 2.553 0 0 1 2.551-2.551h13.42a38.068 38.068 0 0 0 43.544 21.973l-2.321 8.658a7.7 7.7 0 1 0 5.053.855l3.033-11.313a38.118 38.118 0 0 0 6.114-3.148l5.989 22.351a7.673 7.673 0 1 0 4.974-1.143l-6.551-24.445a38.863 38.863 0 0 0 2.967-2.831l34.233 34.233a7.527 7.527 0 0 0-.768 3.278 7.653 7.653 0 1 0 7.653-7.653zm-2.668-33.276a2.551 2.551 0 1 1-2.551 2.551 2.553 2.553 0 0 1 2.55-2.554zm-7.653-22.958a2.551 2.551 0 1 1-2.551 2.551 2.553 2.553 0 0 1 2.551-2.554zm-12.637-56a7.653 7.653 0 1 1 7.653 7.653 7.662 7.662 0 0 1-7.653-7.661zm7.653 22.958a20.261 20.261 0 0 1-12.224-4.107 15.3 15.3 0 0 1 24.448 0 20.276 20.276 0 0 1-12.224 4.1zm-20.408-20.415a20.407 20.407 0 1 1 36.3 12.767 20.4 20.4 0 0 0-7.477-5.811 12.756 12.756 0 1 0-16.841 0 20.452 20.452 0 0 0-7.477 5.811 20.289 20.289 0 0 1-4.505-12.767zm-40.7-2.551a2.551 2.551 0 1 1-2.551 2.551 2.553 2.553 0 0 1 2.554-2.551zm-25.509-5.1a2.551 2.551 0 1 1 2.551 2.551 2.553 2.553 0 0 1-2.548-2.553zm-35.83-.117a2.551 2.551 0 1 1 2.551-2.551 2.553 2.553 0 0 1-2.551 2.551zm2.672 38.379a2.551 2.551 0 1 1 2.551-2.551 2.553 2.553 0 0 1-2.551 2.551zm7.653 22.958a2.551 2.551 0 1 1 2.551-2.551 2.553 2.553 0 0 1-2.552 2.551zm-7.239 69.869a15.3 15.3 0 0 1 24.448 0 20.25 20.25 0 0 1-24.448 0zm4.57-18.847a7.653 7.653 0 1 1 7.653 7.653 7.662 7.662 0 0 1-7.653-7.653zm28.06 2.551a20.317 20.317 0 0 1-4.51 12.767 20.4 20.4 0 0 0-7.477-5.811 12.756 12.756 0 1 0-16.841 0 20.452 20.452 0 0 0-7.477 5.811 20.4 20.4 0 1 1 36.3-12.765zm40.7 2.436a2.551 2.551 0 1 1 2.551-2.551 2.553 2.553 0 0 1-2.554 2.546zm25.509 5.1a2.551 2.551 0 1 1-2.551-2.551 2.553 2.553 0 0 1 2.548 2.548zm-45.8-71.31a12.754 12.754 0 1 1 12.753 12.752 12.769 12.769 0 0 1-12.755-12.755zM87 88.827l-6.921 19.382-6.922-19.382a22.38 22.38 0 0 1 13.841 0zM68.481 90.9l7.9 22.116a33.011 33.011 0 0 1-18.451-8.331A22.972 22.972 0 0 1 68.481 90.9zm23.193 0a22.963 22.963 0 0 1 10.553 13.785 33.011 33.011 0 0 1-18.451 8.331zm-11.6-43.988a33.109 33.109 0 0 1 26.121 53.52 28.2 28.2 0 0 0-15.98-15.875 17.856 17.856 0 1 0-20.274 0 28.2 28.2 0 0 0-15.984 15.879 33.109 33.109 0 0 1 26.121-53.52zm68.878 99.488a2.551 2.551 0 1 1 2.551-2.551 2.553 2.553 0 0 1-2.551 2.551z" class="cls-1"/>
</svg>
