<svg xmlns="http://www.w3.org/2000/svg" width="162.59" height="160.155" viewBox="0 0 162.59 160.155">
    <defs>
        <style>
            .cls-1{fill:#262626;stroke:#fcfcfd;stroke-width:2px}
        </style>
    </defs>
    <g id="Group_50" data-name="Group 50" transform="translate(-47.333 -50.2)">
        <path id="Path_218" d="M402.657 111.819a2.629 2.629 0 0 0 1.864-.773l5.591-5.592a2.636 2.636 0 0 0-3.727-3.727l-5.591 5.592a2.636 2.636 0 0 0 1.863 4.5z" class="cls-1" data-name="Path 218" transform="translate(-215.894 -30.544)"/>
        <path id="Path_219" d="M436.451 78.029a2.627 2.627 0 0 0 1.863-.772l5.591-5.592a2.636 2.636 0 0 0-3.727-3.727l-5.591 5.592a2.636 2.636 0 0 0 1.864 4.5z" class="cls-1" data-name="Path 219" transform="translate(-236.639 -9.801)"/>
        <path id="Path_220" d="M445.551 108.966l-5.638-5.637a2.635 2.635 0 0 0-3.727 3.727l5.637 5.638a2.636 2.636 0 1 0 3.727-3.727z" class="cls-1" data-name="Path 220" transform="translate(-237.621 -31.527)"/>
        <path id="Path_221" d="M406.384 77.256a2.636 2.636 0 0 0 3.727-3.727l-5.591-5.592a2.636 2.636 0 1 0-3.727 3.727z" class="cls-1" data-name="Path 221" transform="translate(-215.894 -9.801)"/>
        <path id="Path_222" d="M299.351 307.76a11.377 11.377 0 1 0 11.375 11.377 11.39 11.39 0 0 0-11.375-11.377zm0 17.481a6.1 6.1 0 1 1 6.1-6.105 6.113 6.113 0 0 1-6.1 6.105z" class="cls-1" data-name="Path 222" transform="translate(-147.11 -157.497)"/>
        <path id="Path_223" d="M201.216 180.36h-23.723V69.74a18.56 18.56 0 0 0-18.538-18.54H61.92a2.537 2.537 0 0 0-.446.09 14.754 14.754 0 0 0-13.141 14.644v16.9a2.635 2.635 0 0 0 2.636 2.636h21.087v106.349a17.549 17.549 0 0 0 14.732 17.291 2.622 2.622 0 0 0 1.084.245h89.621A26.389 26.389 0 0 0 203.852 183a2.635 2.635 0 0 0-2.636-2.636zM53.6 80.2V65.934a9.473 9.473 0 0 1 9.463-9.462h2.124a6.873 6.873 0 0 1 6.866 6.865V80.2zM89 204.024a12.249 12.249 0 0 1-11.677-12.2V63.337a12.061 12.061 0 0 0-2.134-6.865h83.76a13.283 13.283 0 0 1 13.272 13.268v110.62H111.6a2.635 2.635 0 0 0-2.641 2.64A21.373 21.373 0 0 1 89 204.024zm88.488.059h-74.02a26.7 26.7 0 0 0 10.626-18.452h84.321a21.118 21.118 0 0 1-20.922 18.453z" class="cls-1" data-name="Path 223"/>
        <path id="Path_224" d="M146.542 90.605h21.087a2.636 2.636 0 1 0 0-5.272h-21.087a2.636 2.636 0 0 0 0 5.272z" class="cls-1" data-name="Path 224" transform="translate(-58.67 -20.954)"/>
        <path id="Path_225" d="M146.542 124.739h73.806a2.636 2.636 0 1 0 0-5.272h-73.806a2.636 2.636 0 1 0 0 5.272z" class="cls-1" data-name="Path 225" transform="translate(-58.67 -41.908)"/>
        <path id="Path_226" d="M146.542 165.7h73.806a2.636 2.636 0 1 0 0-5.272h-73.806a2.636 2.636 0 1 0 0 5.272z" class="cls-1" data-name="Path 226" transform="translate(-58.67 -67.052)"/>
        <path id="Path_227" d="M146.542 206.659h73.806a2.636 2.636 0 1 0 0-5.272h-73.806a2.636 2.636 0 1 0 0 5.272z" class="cls-1" data-name="Path 227" transform="translate(-58.67 -92.197)"/>
        <path id="Path_228" d="M146.542 247.619h73.806a2.636 2.636 0 1 0 0-5.272h-73.806a2.636 2.636 0 1 0 0 5.272z" class="cls-1" data-name="Path 228" transform="translate(-58.67 -117.341)"/>
        <path id="Path_229" d="M146.542 288.579h73.806a2.636 2.636 0 1 0 0-5.272h-73.806a2.636 2.636 0 1 0 0 5.272z" class="cls-1" data-name="Path 229" transform="translate(-58.67 -142.486)"/>
        <path id="Path_230" d="M189.595 326.9a2.635 2.635 0 0 0-2.636-2.636h-40.417a2.636 2.636 0 1 0 0 5.272h40.417a2.635 2.635 0 0 0 2.636-2.636z" class="cls-1" data-name="Path 230" transform="translate(-58.67 -167.63)"/>
    </g>
</svg>
