<svg xmlns="http://www.w3.org/2000/svg" width="160.155" height="160.155" viewBox="0 0 160.155 160.155">
    <defs>
        <style>
            .cls-1{fill:#262626;stroke:#fcfcfd;stroke-width:2px}
        </style>
    </defs>
    <path id="Path_217" d="M150.5 43.365a7.632 7.632 0 0 0 2.115-14.972l.285-13.512a7.632 7.632 0 1 0-9.96-8.121l-31.776 7.245a7.593 7.593 0 0 0-10.918-2.439 37.752 37.752 0 0 0-33.715-4.3 7.589 7.589 0 0 0-12.012 1.88l-18.95-2.92a7.647 7.647 0 1 0-13.811 5.754L9.814 28.41a7.489 7.489 0 0 0-2.161-.35A7.634 7.634 0 0 0 7.01 43.3l9.09 34.558a7.476 7.476 0 0 0-3.066 8.273 38.212 38.212 0 1 0 57.6 48.988c.214.022.421.061.64.063l3.108 9.318a7.627 7.627 0 1 0 11.871 8.553h26.451a7.62 7.62 0 0 0 14.617-.806 38.1 38.1 0 0 0 22.1-61.666 7.563 7.563 0 0 0 1.079-3.851 7.663 7.663 0 0 0-7.653-7.653c-.237 0-.459.048-.691.069l-9.28-20.108a7.617 7.617 0 0 0 2.319-5.469 7.524 7.524 0 0 0-.421-2.4l11.612-9.03a7.583 7.583 0 0 0 4.114 1.226zm-2.7-28.578l-.293 13.885a7.632 7.632 0 0 0-2.77 2.063L113.69 18.66l30.364-6.923a7.658 7.658 0 0 0 3.746 3.05zm2.7 23.476a2.551 2.551 0 1 1 2.551-2.551 2.554 2.554 0 0 1-2.551 2.551zm0-33.162a2.551 2.551 0 1 1-2.551 2.551A2.554 2.554 0 0 1 150.5 5.1zm-45.916 10.2a2.551 2.551 0 1 1-2.551 2.551 2.554 2.554 0 0 1 2.554-2.547zm-7.309.406a7.576 7.576 0 0 0-.344 2.145 7.663 7.663 0 0 0 7.653 7.653 7.576 7.576 0 0 0 2.145-.344 32.963 32.963 0 0 1-2.145 39.359v-5.178a10.252 10.252 0 0 0-7.4-9.814L86.73 46.544V43.3a12.7 12.7 0 0 0 5.1-10.138v-5.1a12.754 12.754 0 0 0-25.509 0v5.1a12.7 12.7 0 0 0 5.1 10.138v3.245l-10.452 2.983a10.247 10.247 0 0 0-7.4 9.814v5.107a32.9 32.9 0 0 1-6.341-11.963 7.619 7.619 0 0 0-.924-13.63A33.255 33.255 0 0 1 56.752 18.94a7.625 7.625 0 0 0 12.122-6.185 7.7 7.7 0 0 0-.09-.885 32.761 32.761 0 0 1 28.493 3.842zm-18.2 25.1a7.663 7.663 0 0 1-7.653-7.653v-5.1a7.653 7.653 0 0 1 15.305 0v5.1a7.663 7.663 0 0 1-7.649 7.66zm0 5.1a12.752 12.752 0 0 0 2.551-.258v1.753l-2.551 2.551-2.551-2.551v-1.744a12.752 12.752 0 0 0 2.554.258zm-5.844 5.416l5.844 5.844 5.844-5.844 10.861 3.1a5.124 5.124 0 0 1 3.7 4.906v10.122a32.909 32.909 0 0 1-40.814-.031V59.342a5.124 5.124 0 0 1 3.7-4.906zm-52.826 30.3a2.551 2.551 0 1 1-2.551 2.551 2.554 2.554 0 0 1 2.553-2.545zm.643-5.038l-9.092-34.551a7.714 7.714 0 0 0 1.913-1.893L35.761 46.4a7.577 7.577 0 0 0 1.724 4.357L21.93 76.68a8.554 8.554 0 0 0-.88-.09zm7.01-61.285c.1 0 .2-.025.3-.031L38.332 40.2a7.779 7.779 0 0 0-1.183 1.289L15.257 35.23a7.6 7.6 0 0 0-1.3-3.846L25.9 14.955a7.461 7.461 0 0 0 2.16.35zm6.7-4.041l18.949 2.916c.033.18.091.349.14.525A38.37 38.37 0 0 0 41.8 35.136l-8.707-21.764a7.6 7.6 0 0 0 1.67-2.107zm8.6 32.1a2.551 2.551 0 1 1-2.551 2.551 2.554 2.554 0 0 1 2.558-2.545zM61.221 10.2a2.551 2.551 0 1 1-2.551 2.551 2.554 2.554 0 0 1 2.551-2.551zM28.06 5.1a2.551 2.551 0 1 1-2.551 2.551A2.554 2.554 0 0 1 28.06 5.1zM5.1 35.712a2.551 2.551 0 1 1 2.551 2.551A2.554 2.554 0 0 1 5.1 35.712zm12.756 105.164v-10.109a5.124 5.124 0 0 1 3.7-4.906l10.864-3.1 5.844 5.844 5.844-5.844 10.861 3.1a5.124 5.124 0 0 1 3.7 4.906V140.9a33.011 33.011 0 0 1-40.814-.025zm20.407-28.637a7.663 7.663 0 0 1-7.653-7.653v-5.1a7.653 7.653 0 0 1 15.305 0v5.1a7.663 7.663 0 0 1-7.652 7.653zm0 5.1a12.752 12.752 0 0 0 2.551-.258v1.753l-2.551 2.551-2.551-2.551v-1.753a12.752 12.752 0 0 0 2.551.26zm25.509 18.586v-5.163a10.252 10.252 0 0 0-7.4-9.814l-10.456-2.982v-3.245a12.7 12.7 0 0 0 5.1-10.138v-5.1a12.754 12.754 0 0 0-25.509 0v5.1a12.7 12.7 0 0 0 5.1 10.138v3.245l-10.456 2.984a10.247 10.247 0 0 0-7.4 9.814v5.183a33 33 0 0 1 3.186-45.582 7.625 7.625 0 0 0 12.123-6.186 7.407 7.407 0 0 0-.087-.87 32.812 32.812 0 0 1 10.291-1.681 33.2 33.2 0 0 1 33.161 33.162 32.572 32.572 0 0 1-.472 5.15A7.62 7.62 0 0 0 66 132.934a33.213 33.213 0 0 1-2.228 2.993zm7.653-10.933a2.551 2.551 0 1 1-2.551 2.551 2.554 2.554 0 0 1 2.551-2.549zm7.653 28.06a2.551 2.551 0 1 1 2.551-2.551 2.554 2.554 0 0 1-2.551 2.552zm40.814-40.814a7.663 7.663 0 0 1-7.653-7.653v-5.1a7.653 7.653 0 0 1 15.305 0v5.1a7.663 7.663 0 0 1-7.652 7.654zm0 5.1a12.752 12.752 0 0 0 2.551-.258v1.753l-2.551 2.551-2.551-2.551v-1.753a12.752 12.752 0 0 0 2.551.261zm-5.844 5.416l5.844 5.844 5.844-5.844 10.861 3.1a5.124 5.124 0 0 1 3.7 4.906v10.06a32.874 32.874 0 0 1-13.55 6.341 7.6 7.6 0 0 0-13.714 0 32.874 32.874 0 0 1-13.55-6.341v-10.06a5.124 5.124 0 0 1 3.7-4.906zm5.844 30.3a2.551 2.551 0 1 1 2.551-2.551 2.554 2.554 0 0 1-2.551 2.55zM145.4 135.84v-5.076a10.252 10.252 0 0 0-7.4-9.814l-10.456-2.982v-3.245a12.7 12.7 0 0 0 5.1-10.138v-5.1a12.754 12.754 0 1 0-25.509 0v5.1a12.7 12.7 0 0 0 5.1 10.138v3.245l-10.456 2.984a10.247 10.247 0 0 0-7.4 9.814v5.076a33.074 33.074 0 0 1 40.939-50.354 7.526 7.526 0 0 0 7.528 8.895 7.541 7.541 0 0 0 2.68-.511 32.809 32.809 0 0 1-.129 41.968zm0-49.11a2.551 2.551 0 1 1-2.551-2.551 2.554 2.554 0 0 1 2.551 2.551zm-8.122-5.982a38.205 38.205 0 0 0-36.326 67.2H86.261a7.634 7.634 0 0 0-7.04-5.087l-3.108-9.318a7.583 7.583 0 0 0-.231-12.2 38.13 38.13 0 0 0-48.957-43.066l14.917-24.861c.121.026.25.017.37.039a38.239 38.239 0 0 0 75.129-10.089 37.81 37.81 0 0 0-5.72-20.037l31.251 12.155c0 .076-.022.151-.022.229a7.524 7.524 0 0 0 .421 2.4l-11.612 9.03a7.583 7.583 0 0 0-4.114-1.222 7.653 7.653 0 0 0 0 15.305c.237 0 .459-.048.689-.069zm-9.733-24.628a2.551 2.551 0 1 1 2.551-2.551 2.554 2.554 0 0 1-2.551 2.551z" class="cls-1" data-name="Path 217" transform="translate(1 1)"/>
</svg>
