<svg xmlns="http://www.w3.org/2000/svg" width="160.154" height="160.155" viewBox="0 0 160.154 160.155">
    <defs>
        <style>
            .cls-1{fill:#009fff;stroke:#efefef;stroke-width:2px}
        </style>
    </defs>
    <g id="stakeholder">
        <path id="Path_231" d="M128.545 97.934a30.637 30.637 0 0 0-30.481 28.06H77.527v-7.122l-6.722-1.582a40.57 40.57 0 0 0-3.523-8.5l3.635-5.872-5.035-5.035L108.8 54.964a30.657 30.657 0 1 0-3.61-3.607L62.275 94.273l-5.035-5.035-5.872 3.635a40.579 40.579 0 0 0-8.5-3.525l-1.584-6.719h-7.122V62.091a30.611 30.611 0 1 0-5.1 0v20.538h-7.124l-1.582 6.719a40.615 40.615 0 0 0-8.6 3.581l-5.022-2.648H1v68.874h68.874v-5.734l-2.65-5.02a40.5 40.5 0 0 0 3.581-8.6l6.722-1.579V131.1h20.537a30.6 30.6 0 1 0 30.481-33.162zm-15.3-45.962a15.3 15.3 0 0 1 30.606 0 25.319 25.319 0 0 1-30.606 0zm7.65-28.014a7.653 7.653 0 1 1 7.653 7.653 7.662 7.662 0 0 1-7.656-7.653zm7.65-17.858a25.479 25.479 0 0 1 19.894 41.434 20.464 20.464 0 0 0-11.466-14.081 12.753 12.753 0 1 0-16.859 0 20.464 20.464 0 0 0-11.466 14.081A25.481 25.481 0 0 1 128.545 6.1zM23.958 23.958a7.653 7.653 0 1 1 7.653 7.653 7.662 7.662 0 0 1-7.653-7.653zm7.653 33.162a25.34 25.34 0 0 1-15.3-5.148 15.3 15.3 0 0 1 30.606 0 25.34 25.34 0 0 1-15.306 5.148zM6.1 31.611a25.509 25.509 0 1 1 45.4 15.925 20.464 20.464 0 0 0-11.461-14.081 12.753 12.753 0 1 0-16.859 0 20.464 20.464 0 0 0-11.466 14.081A25.383 25.383 0 0 1 6.1 31.611zm0 122.443v-25.509a25.509 25.509 0 1 1 25.509 25.509zm66.323-19.877l-5.8 1.365-.372 1.518a35.433 35.433 0 0 1-4.13 9.959l-.75 1.235 3.061 5.8H48.5A30.594 30.594 0 1 0 6.1 111.66V95.717l5.8 3.061 1.235-.75a35.477 35.477 0 0 1 9.959-4.13l1.518-.372 1.367-5.8h11.264l1.365 5.8 1.518.372a35.433 35.433 0 0 1 9.959 4.13l1.337.811 5.065-3.139 7.966 7.966-3.135 5.066.811 1.337a35.489 35.489 0 0 1 4.13 9.959l.372 1.518 5.793 1.362zm40.817 14.729a15.3 15.3 0 0 1 30.606 0 25.32 25.32 0 0 1-30.606 0zm7.65-28.014a7.653 7.653 0 1 1 7.653 7.653 7.662 7.662 0 0 1-7.651-7.653zm27.547 23.578a20.464 20.464 0 0 0-11.466-14.081 12.753 12.753 0 1 0-16.859 0 20.464 20.464 0 0 0-11.466 14.081 25.51 25.51 0 1 1 39.791 0z" class="cls-1" data-name="Path 231"/>
        <path id="Path_232" d="M8 56h5.1v5.1H8z" class="cls-1" data-name="Path 232" transform="translate(10.856 85.299)"/>
        <path id="Path_233" d="M12 56h5.1v5.1H12z" class="cls-1" data-name="Path 233" transform="translate(17.06 85.299)"/>
        <path id="Path_234" d="M16 56h5.1v5.1H16z" class="cls-1" data-name="Path 234" transform="translate(23.263 85.299)"/>
        <path id="Path_235" d="M8 52h25.509v5.1H8z" class="cls-1" data-name="Path 235" transform="translate(10.856 79.095)"/>
        <path id="Path_236" d="M8 48h25.509v5.1H8z" class="cls-1" data-name="Path 236" transform="translate(10.856 72.892)"/>
        <path id="Path_237" d="M8 44h25.509v5.1H8z" class="cls-1" data-name="Path 237" transform="translate(10.856 66.688)"/>
    </g>
</svg>
